<?xml version="1.0" standalone="no"?><!DOCTYPE svg PUBLIC "-//W3C//DTD SVG 1.1//EN" "http://www.w3.org/Graphics/SVG/1.1/DTD/svg11.dtd"><svg t="1508815305023" class="icon" style="" viewBox="0 0 1024 1024" version="1.1" xmlns="http://www.w3.org/2000/svg" p-id="3202" xmlns:xlink="http://www.w3.org/1999/xlink" width="200" height="200"><defs><style type="text/css"></style></defs><path d="M933.79584 610.23232c-53.7088-93.04064-21.43232-212.31616 72.11008-266.51648L905.216 169.46176c-28.672 16.83456-62.12608 26.51136-97.7408 26.51136-107.53024 0-194.70336-87.7568-194.70336-195.97312L411.51488 0c0.29696 33.46432-8.02816 67.21536-25.92768 98.23232C331.8784 191.27296 212.40832 222.8736 118.6816 169.0624L18.10432 343.31648c28.95872 16.4352 54.10816 40.50944 71.91552 71.424 53.61664 92.94848 21.42208 211.9168-71.72096 266.32192l100.57728 174.25408c28.672-16.73216 61.93152-26.22464 97.44384-26.22464 107.13088 0 194.11968 87.08096 194.60096 194.89792l201.35936 0c-0.1024-33.06496 8.22272-66.52928 25.92768-97.25952 53.61664-92.94848 172.78976-124.54912 266.42432-71.03488l100.67968-174.25408C976.44544 665.02656 951.6032 640.95232 933.79584 610.23232zM512 719.32928c-114.47296 0-207.32928-92.75392-207.32928-207.31904 0-114.47296 92.75392-207.32928 207.32928-207.32928S719.42144 397.43488 719.42144 512C719.42144 626.47296 626.56512 719.32928 512 719.32928z" p-id="3203" fill="#ffffff"></path></svg>