<?xml version="1.0" standalone="no"?><!DOCTYPE svg PUBLIC "-//W3C//DTD SVG 1.1//EN" "http://www.w3.org/Graphics/SVG/1.1/DTD/svg11.dtd"><svg t="1508816569145" class="icon" style="" viewBox="0 0 1024 1024" version="1.1" xmlns="http://www.w3.org/2000/svg" p-id="23576" xmlns:xlink="http://www.w3.org/1999/xlink" width="200" height="200"><defs><style type="text/css"></style></defs><path d="M63.972499 479.657384c0-126.615723-0.112564-174.09099-0.112564-300.706713 0-109.742427 60.918441-116.885104 119.473045-116.885104l477.891158 0c92.079138 0 120.540354 31.329543 120.540354 119.473045l0 59.735499c0 47.081295-81.878822 41.73759-81.878822 0l0-37.761022c0-44.269249-14.399965-59.736523-60.58075-59.736523L205.307458 143.776567c-49.500391 0-59.737546 6.693446-59.737546 59.736523l0 553.413202c0 32.737612 17.944697 59.737546 59.737546 59.737546 72.448032 0 25.049512 0 97.497545 0 36.506449 0 39.20593 81.712023 0 81.712023-39.204907 0-68.904323 0.450255-141.972479 0.166799-43.086307-0.166799-78.803787-25.705452-91.517343-65.247027-3.542686-11.08036-5.061272-23.288402-5.061272-34.987862C63.859935 672.195515 63.972499 605.765547 63.972499 479.657384L63.972499 479.657384 63.972499 479.657384" p-id="23577" fill="#ffffff"></path><path d="M661.504524 360.972285c-165.033707-0.225127-299.018258 133.536342-299.018258 298.511721 0 164.978449 133.36545 298.569026 298.119795 298.569026 165.201529 0.056282 298.961976-133.027759 299.076586-297.670563C959.848423 495.070422 826.539254 361.197412 661.504524 360.972285zM660.122037 870.514303c-115.973338-0.347924-210.345706-95.41614-210.097042-211.740472 0.24764-115.974361 95.517447-210.793914 211.391525-210.54525 116.918873 0.299829 211.243145 95.41921 210.893174 212.686007C872.061031 776.542048 776.595772 870.814132 660.122037 870.514303z" p-id="23578" fill="#ffffff"></path><path d="M601.486592 241.274112c47.588855 0 41.063231 81.711 0 81.711L243.070526 322.985112c-44.831045 0-42.918485-81.711 0-81.711C360.686271 241.21783 555.758108 241.21783 601.486592 241.274112L601.486592 241.274112" p-id="23579" fill="#ffffff"></path><path d="M682.666496 622.219287c0.051165 2.676969 1.520633 5.932106 3.305279 7.821129 13.703093 14.808264 78.393441 81.601506 92.096535 96.407724 14.071484 15.172561 0.763386 43.980677-18.08489 50.228985-9.607822 3.201925-21.934568 0.26606-29.1806-7.136537-18.164708-18.691711-91.87857-93.455485-109.781312-112.459305-4.77577-5.091972-7.088442-11.498892-7.088442-18.691711 0-37.066197-0.105401-74.132394 0.053212-111.199615 0.104377-15.434527 19.346627-27.089985 33.836643-27.194362 14.646582-0.051165 34.735106 11.865235 34.893718 27.563776C682.822039 543.256888 682.350295 606.362134 682.666496 622.219287L682.666496 622.219287" p-id="23580" fill="#ffffff"></path><path d="M302.805002 420.482657c47.587831 0.058328 41.062208 81.711 0 81.711l-59.735499 0c-44.831045 0-42.918485-81.711 0-81.711C360.686271 420.426375 257.075495 420.426375 302.805002 420.482657L302.805002 420.482657" p-id="23581" fill="#ffffff"></path><path d="M302.805002 420.482657" p-id="23582" fill="#ffffff"></path></svg>