<?xml version="1.0" standalone="no"?><!DOCTYPE svg PUBLIC "-//W3C//DTD SVG 1.1//EN" "http://www.w3.org/Graphics/SVG/1.1/DTD/svg11.dtd"><svg t="1508816368638" class="icon" style="" viewBox="0 0 1024 1024" version="1.1" xmlns="http://www.w3.org/2000/svg" p-id="17090" xmlns:xlink="http://www.w3.org/1999/xlink" width="200" height="200"><defs><style type="text/css"></style></defs><path d="M1003.459765 215.461647L808.176941 20.239059a69.029647 69.029647 0 0 0-97.581176 0L515.312941 215.461647a69.029647 69.029647 0 0 0 0 97.581177l195.282824 195.343058a69.029647 69.029647 0 0 0 97.581176 0l195.282824-195.282823a69.029647 69.029647 0 0 0 0-97.581177zM759.386353 459.595294L564.103529 264.312471l195.282824-195.282824 195.222588 195.282824-195.222588 195.222588zM345.148235 57.223529H69.029647C30.900706 57.223529 0 88.064 0 126.192941V402.371765c0 38.128941 30.900706 69.029647 69.029647 69.029647H345.148235c38.189176 0 69.029647-30.900706 69.029647-69.029647V126.192941C414.177882 88.064 383.337412 57.223529 345.148235 57.223529z m0 552.297412H69.029647C30.900706 609.460706 0 640.301176 0 678.490353v276.118588c0 38.189176 30.900706 69.029647 69.029647 69.029647H345.148235c38.189176 0 69.029647-30.840471 69.029647-69.029647v-276.118588c0-38.128941-30.840471-69.029647-69.029647-69.029647z m552.297412 0h-276.118588c-38.189176 0-69.029647 30.900706-69.029647 69.029647v276.118588c0 38.189176 30.840471 69.029647 69.029647 69.029648h276.118588c38.128941 0 69.029647-30.840471 69.029647-69.029648v-276.118588c0-38.128941-30.900706-69.029647-69.029647-69.029647z" p-id="17091" fill="#ffffff"></path></svg>