<?xml version="1.0" standalone="no"?><!DOCTYPE svg PUBLIC "-//W3C//DTD SVG 1.1//EN" "http://www.w3.org/Graphics/SVG/1.1/DTD/svg11.dtd"><svg t="1508817015793" class="icon" style="" viewBox="0 0 1024 1024" version="1.1" xmlns="http://www.w3.org/2000/svg" p-id="29923" xmlns:xlink="http://www.w3.org/1999/xlink" width="200" height="200"><defs><style type="text/css"></style></defs><path d="M893.186164 728.980823l-61.479213-16.412808C770.201132 850.343915 632.292202 946.533674 471.676108 946.533674c-217.792305 0-394.314671-176.548972-394.314671-394.314671 0-203.239867 155.570171-372.857986 353.524662-394.315694L430.886099 76.320223l54.387701 0c244.87922 0 462.300065 201.778586 462.300065 450.67019C947.573865 610.882078 922.902976 680.169117 893.186164 728.980823zM430.885076 577.4742 430.885076 212.291011c-165.423587 23.874757-299.136961 168.874175-299.136961 339.927993 0 187.755198 152.197354 339.925946 339.92697 339.925946 126.809127 0 258.796184-78.101799 304.81938-194.289008L430.885076 577.4742zM485.2738 130.707924l0 407.913387 368.528378 125.45427c21.723767-38.693254 36.356023-81.158415 36.356023-137.085168C890.158201 312.410266 696.824961 129.646755 485.2738 130.707924z" p-id="29924" fill="#ffffff"></path></svg>