<?xml version="1.0" standalone="no"?><!DOCTYPE svg PUBLIC "-//W3C//DTD SVG 1.1//EN" "http://www.w3.org/Graphics/SVG/1.1/DTD/svg11.dtd"><svg t="1508817323038" class="icon" style="" viewBox="0 0 1024 1024" version="1.1" xmlns="http://www.w3.org/2000/svg" p-id="34710" xmlns:xlink="http://www.w3.org/1999/xlink" width="200" height="200"><defs><style type="text/css"></style></defs><path d="M53.333333 687.829333V768A117.418667 117.418667 0 0 0 170.666667 885.333333h682.666666A117.418667 117.418667 0 0 0 970.666667 768v-80.170667H53.333333zM298.666667 800H213.333333a32 32 0 0 1 0-64h85.333334a32 32 0 0 1 0 64z m213.333333 0h-85.333333a32 32 0 0 1 0-64h85.333333a32 32 0 0 1 0 64z m256 10.666667a42.666667 42.666667 0 1 1 0-85.333334 42.666667 42.666667 0 0 1 0 85.333334zM970.666667 623.829333V256A117.418667 117.418667 0 0 0 853.333333 138.666667H170.666667A117.418667 117.418667 0 0 0 53.333333 256v367.829333h917.333334zM245.418667 435.2h123.562666l44.757334-170.026667a32.085333 32.085333 0 0 1 30.378666-23.850666c13.738667 0.554667 27.093333 9.002667 31.189334 22.741333l64.768 214.186667 64.896-107.776a31.872 31.872 0 0 1 27.264-15.488h0.170666c11.093333 0 21.418667 5.76 27.264 15.189333l38.357334 62.165333h80.64a32 32 0 0 1 0 64h-98.517334a32.128 32.128 0 0 1-27.264-15.189333l-20.181333-32.682667-75.008 124.586667a31.957333 31.957333 0 0 1-58.069333-7.253333l-52.821334-174.848-22.229333 84.437333a32 32 0 0 1-30.933333 23.808H245.418667a32 32 0 0 1 0-64z" p-id="34711" fill="#ffffff"></path></svg>