<?xml version="1.0" standalone="no"?><!DOCTYPE svg PUBLIC "-//W3C//DTD SVG 1.1//EN" "http://www.w3.org/Graphics/SVG/1.1/DTD/svg11.dtd"><svg t="1508815566665" class="icon" style="" viewBox="0 0 1024 1024" version="1.1" xmlns="http://www.w3.org/2000/svg" p-id="5245" xmlns:xlink="http://www.w3.org/1999/xlink" width="200" height="200"><defs><style type="text/css"></style></defs><path d="M492.8 755.2H224c-25.6 0-44.8-19.2-44.8-44.8 0-25.6 19.2-44.8 44.8-44.8h268.8c25.6 0 44.8 19.2 44.8 44.8s-19.2 44.8-44.8 44.8zM224 480h364.8c25.6 0 44.8 19.2 44.8 44.8 0 25.6-19.2 44.8-44.8 44.8H224c-25.6 0-44.8-19.2-44.8-44.8 0-25.6 19.2-44.8 44.8-44.8z m0-192h467.2c25.6 0 44.8 19.2 44.8 44.8 0 25.6-19.2 44.8-44.8 44.8H224c-25.6 0-44.8-19.2-44.8-44.8 0-25.6 19.2-44.8 44.8-44.8z m326.4 486.4c0-140.8 115.2-256 256-256 19.2 0 38.4 0 57.6 6.4V160c0-83.2-70.4-147.2-160-147.2H192C102.4 12.8 32 76.8 32 160v704c0 83.2 70.4 147.2 160 147.2h518.4c-89.6-38.4-160-128-160-236.8z" p-id="5246" fill="#ffffff"></path><path d="M921.6 716.8s0 6.4 0 0l-12.8 12.8H896l-44.8-44.8v-12.8l12.8-12.8h12.8l44.8 44.8v12.8z m-38.4 38.4l-121.6 121.6s-6.4 6.4-12.8 6.4l-57.6 6.4c-6.4 0-6.4 0-6.4-6.4l6.4-57.6c0-6.4 0-6.4 6.4-12.8l121.6-121.6h12.8l44.8 44.8c12.8 12.8 12.8 12.8 6.4 19.2z m-76.8-172.8c-108.8 0-198.4 89.6-198.4 198.4s89.6 198.4 198.4 198.4 198.4-89.6 198.4-198.4-89.6-198.4-198.4-198.4z" p-id="5247" fill="#ffffff"></path></svg>