<?xml version="1.0" standalone="no"?><!DOCTYPE svg PUBLIC "-//W3C//DTD SVG 1.1//EN" "http://www.w3.org/Graphics/SVG/1.1/DTD/svg11.dtd"><svg t="1508816228104" class="icon" style="" viewBox="0 0 1024 1024" version="1.1" xmlns="http://www.w3.org/2000/svg" p-id="14364" xmlns:xlink="http://www.w3.org/1999/xlink" width="200" height="200"><defs><style type="text/css"></style></defs><path d="M860.8 976c-25.6 0-48-9.6-67.2-28.8L576 732.8c-3.2-3.2-6.4-9.6-6.4-12.8 0-6.4 3.2-9.6 6.4-12.8l80-80c3.2-3.2 9.6-6.4 12.8-6.4 6.4 0 9.6 3.2 12.8 6.4l217.6 214.4c35.2 35.2 41.6 86.4 12.8 118.4-16 6.4-32 16-51.2 16z m-246.4-259.2l204.8 201.6c12.8 12.8 28.8 19.2 41.6 19.2 9.6 0 16-3.2 22.4-9.6 6.4-6.4 9.6-19.2 6.4-28.8-3.2-12.8-9.6-22.4-19.2-32l-204.8-201.6-51.2 51.2z m-432 224c-28.8 0-57.6-9.6-76.8-32-22.4-22.4-35.2-54.4-28.8-92.8 3.2-35.2 22.4-67.2 48-96L512 332.8v-6.4c-6.4-28.8-19.2-86.4 25.6-169.6 32-60.8 153.6-105.6 169.6-108.8h3.2c9.6 0 16 3.2 19.2 12.8 6.4 12.8 0 22.4-19.2 44.8-22.4 25.6-54.4 64-60.8 102.4-3.2 28.8 3.2 83.2 35.2 115.2 28.8 28.8 76.8 44.8 108.8 44.8h12.8c28.8-6.4 70.4-38.4 105.6-67.2 25.6-22.4 32-25.6 41.6-25.6 6.4 0 12.8 3.2 16 9.6 3.2 3.2 6.4 9.6 3.2 19.2v3.2c-32 105.6-80 153.6-115.2 172.8-32 19.2-70.4 25.6-118.4 25.6H681.6L294.4 892.8c-32 32-73.6 48-112 48z m3.2-166.4c-28.8 0-54.4 25.6-54.4 54.4 0 28.8 25.6 54.4 54.4 54.4s54.4-25.6 54.4-54.4c0-28.8-22.4-54.4-54.4-54.4zM620.8 128c-25.6 16-44.8 32-51.2 48-38.4 73.6-28.8 115.2-22.4 140.8 3.2 16 6.4 28.8-3.2 38.4L166.4 736h22.4c51.2 0 89.6 41.6 89.6 92.8v22.4l16-12.8 361.6-364.8c6.4-6.4 16-6.4 25.6-6.4H736c41.6 0 76.8-6.4 102.4-22.4 22.4-12.8 44.8-35.2 60.8-67.2l-12.8-12.8c-32 22.4-54.4 35.2-73.6 38.4-6.4 0-12.8 3.2-19.2 3.2-38.4 0-99.2-16-137.6-57.6-44.8-44.8-51.2-115.2-44.8-147.2 3.2-19.2 9.6-38.4 25.6-60.8l-16-12.8z m-416 128l-64-35.2-67.2-96 35.2-32L198.4 160l32 64 176 176-28.8 28.8L204.8 256z" p-id="14365" fill="#ffffff"></path></svg>