<?xml version="1.0" standalone="no"?><!DOCTYPE svg PUBLIC "-//W3C//DTD SVG 1.1//EN" "http://www.w3.org/Graphics/SVG/1.1/DTD/svg11.dtd"><svg t="1508816783467" class="icon" style="" viewBox="0 0 1024 1024" version="1.1" xmlns="http://www.w3.org/2000/svg" p-id="27380" xmlns:xlink="http://www.w3.org/1999/xlink" width="200" height="200"><defs><style type="text/css"></style></defs><path d="M877.952 78.85H146.41c-53.398 0-96.816 40.59-96.816 90.484v683.66c0 49.858 43.418 90.466 96.816 90.466h731.542c53.392 0 96.816-40.59 96.816-90.466V169.334c0-49.894-43.424-90.484-96.816-90.484z m36.234 774.144c0 18.672-16.244 33.854-36.234 33.854H146.41c-19.982 0-36.242-15.182-36.242-33.854V169.334c0-18.69 16.26-33.872 36.242-33.872h731.542c19.99 0 36.234 15.198 36.234 33.872v683.66z" p-id="27381" fill="#ffffff"></path><path d="M811.494 729.836H212.91c-16.714 0-30.292 13.594-30.292 30.344 0 16.698 13.576 30.274 30.292 30.274h598.584c16.684 0 30.256-13.576 30.256-30.274 0-16.75-13.572-30.344-30.256-30.344zM840.466 263.264a18.74 18.74 0 0 0-1.35-4.61c-0.878-2.024-1.96-3.46-2.752-4.508-1.908-3.022-2.838-4.154-3.124-4.17l-1.318-1.42c-1.504-1.4-2.904-2.194-4.152-2.87-1.182-0.794-2.988-2.008-5.524-3.004-2.16-0.846-4.102-1.132-5.622-1.35-0.844-0.22-2.752-0.742-5.168-0.742h-179.618c-16.714 0-30.292 13.574-30.292 30.306 0 16.716 13.576 30.308 30.292 30.308h111.608l-203.32 225.902-179.536-166.316-170.23 189.124c-5.392 6.028-8.138 13.778-7.7 21.866a29.908 29.908 0 0 0 9.938 20.872 30.28 30.28 0 0 0 20.33 7.834 30.16 30.16 0 0 0 22.484-10.064l129.066-143.4 179.566 166.282 237.126-263.452v120.556c0 16.716 13.576 30.308 30.326 30.308 16.684 0 30.256-13.592 30.256-30.308l-0.084-200.252c-0.05-2.586-0.61-4.698-1.202-6.892z" p-id="27382" fill="#ffffff"></path></svg>