<?xml version="1.0" standalone="no"?><!DOCTYPE svg PUBLIC "-//W3C//DTD SVG 1.1//EN" "http://www.w3.org/Graphics/SVG/1.1/DTD/svg11.dtd"><svg t="1508816074581" class="icon" style="" viewBox="0 0 1024 1024" version="1.1" xmlns="http://www.w3.org/2000/svg" p-id="13469" xmlns:xlink="http://www.w3.org/1999/xlink" width="200" height="200"><defs><style type="text/css"></style></defs><path d="M905.256065 231.156543a409.108048 409.108048 0 0 1 48.904491 193.955761c0 108.524011-42.654058 207.170964-112.23306 282.299802a41.445183 41.445183 0 0 1-6.66255 8.4896L553.514633 999.602703a41.610029 41.610029 0 0 1-8.709395 12.198649c-13.586107 13.050356-33.614969 15.454369-50.030943 8.008797a41.55508 41.55508 0 0 1-19.314526-14.794982L188.242043 715.874231a42.447999 42.447999 0 0 1-7.335673-9.712212C112.014228 631.170553 69.827236 532.976929 69.827236 425.08483 69.827236 190.315797 267.780528 0.000398 511.97329 0.000398a452.655025 452.655025 0 0 1 236.898301 66.570552 44.055254 44.055254 0 0 1 15.385683 9.616052 435.098862 435.098862 0 0 1 126.382393 129.65185 41.692452 41.692452 0 0 1 14.602661 25.22153z m-393.488833 24.589617c-98.688164 0-178.707451 76.928413-178.707451 171.811369s79.978075 171.797631 178.721188 171.797631 178.748663-76.928413 178.748663-171.797631-80.060498-171.811368-178.748663-171.811369z" p-id="13470" fill="#ffffff"></path></svg>