<?xml version="1.0" standalone="no"?><!DOCTYPE svg PUBLIC "-//W3C//DTD SVG 1.1//EN" "http://www.w3.org/Graphics/SVG/1.1/DTD/svg11.dtd"><svg t="1508816788942" class="icon" style="" viewBox="0 0 1024 1024" version="1.1" xmlns="http://www.w3.org/2000/svg" p-id="27545" xmlns:xlink="http://www.w3.org/1999/xlink" width="200" height="200"><defs><style type="text/css"></style></defs><path d="M799.507692 39.384615H216.615385c-78.769231 0-149.661538 66.953846-149.661539 153.6v641.969231c0 86.646154 70.892308 153.6 153.6 153.6h578.953846c86.646154 0 153.6-66.953846 153.6-153.6V189.046154C945.230769 110.276923 886.153846 39.384615 799.507692 39.384615zM385.969231 244.184615L512 366.276923l126.030769-122.092308h-110.276923l3.938462-70.892307h248.123077v244.184615h-78.769231V307.2l-137.846154 141.784615-39.384615 43.323077-133.907693-126.030769-98.461538 98.461539L236.307692 401.723077l149.661539-157.538462zM630.153846 787.692308H189.046154v-78.769231H630.153846v78.769231z m196.923077-157.538462H189.046154V543.507692H827.076923V630.153846z" fill="#ffffff" p-id="27546"></path></svg>