<?xml version="1.0" standalone="no"?><!DOCTYPE svg PUBLIC "-//W3C//DTD SVG 1.1//EN" "http://www.w3.org/Graphics/SVG/1.1/DTD/svg11.dtd"><svg t="1508815323349" class="icon" style="" viewBox="0 0 1024 1024" version="1.1" xmlns="http://www.w3.org/2000/svg" p-id="3366" xmlns:xlink="http://www.w3.org/1999/xlink" width="200" height="200"><defs><style type="text/css"></style></defs><path d="M658.773333 976.213333c-17.066667 0-34.133333-6.826667-47.786666-20.48-13.653333-17.066667-64.853333-61.44-102.4-61.44-40.96 0-88.746667 44.373333-102.4 58.026667-10.24 13.653333-27.306667 20.48-47.786667 20.48-6.826667 0-17.066667 0-23.893333-3.413333l-119.466667-68.266667c-20.48-17.066667-30.72-44.373333-20.48-71.68 0 0 10.24-27.306667 10.24-47.786667 0-71.68-58.026667-129.706667-129.706667-129.706666h-3.413333c-20.48 0-37.546667-17.066667-40.96-44.373334 0-3.413333-10.24-54.613333-10.24-95.573333s10.24-95.573333 10.24-95.573333c6.826667-27.306667 20.48-47.786667 44.373333-44.373334h3.413334c68.266667-3.413333 126.293333-58.026667 126.293333-129.706666 0-23.893333-10.24-47.786667-10.24-47.786667-13.653333-27.306667-3.413333-58.026667 17.066667-71.68L341.333333 51.2c6.826667-3.413333 13.653333-3.413333 23.893334-3.413333 17.066667 0 34.133333 6.826667 47.786666 20.48 13.653333 17.066667 61.44 58.026667 102.4 58.026666 37.546667 0 85.333333-40.96 102.4-54.613333 10.24-10.24 27.306667-17.066667 44.373334-17.066667 6.826667 0 17.066667 0 23.893333 3.413334l122.88 68.266666c20.48 17.066667 30.72 44.373333 20.48 71.68 0 0-10.24 27.306667-10.24 47.786667 0 71.68 58.026667 129.706667 129.706667 129.706667h3.413333c20.48 0 37.546667 17.066667 44.373333 44.373333 0 3.413333 10.24 54.613333 10.24 95.573333 0 40.96-10.24 95.573333-10.24 95.573334-6.826667 27.306667-23.893333 47.786667-44.373333 44.373333h-3.413333c-71.68 0-129.706667 58.026667-129.706667 129.706667 0 23.893333 10.24 47.786667 10.24 47.786666 10.24 23.893333 3.413333 54.613333-20.48 71.68l-126.293333 68.266667c-6.826667 3.413333-13.653333 3.413333-23.893334 3.413333z m-3.413333-58.026666h3.413333l116.053334-64.853334c-3.413333-6.826667-17.066667-37.546667-17.066667-71.68 0-98.986667 78.506667-180.906667 177.493333-187.733333 0-6.826667 10.24-51.2 10.24-85.333333s-6.826667-78.506667-10.24-85.333334c-98.986667-3.413333-177.493333-85.333333-177.493333-187.733333 0-34.133333 13.653333-64.853333 17.066667-71.68l-116.053334-64.853333h-3.413333c-3.413333 3.413333-17.066667 20.48-40.96 34.133333-34.133333 23.893333-68.266667 37.546667-98.986667 37.546667-30.72 0-64.853333-13.653333-98.986666-37.546667-23.893333-17.066667-40.96-34.133333-44.373334-37.546667h-3.413333L245.76 170.666667c3.413333 6.826667 17.066667 37.546667 17.066667 71.68 0 98.986667-78.506667 180.906667-177.493334 187.733333 0 6.826667-10.24 51.2-10.24 85.333333s6.826667 78.506667 10.24 85.333334c98.986667 3.413333 177.493333 85.333333 177.493334 187.733333 0 34.133333-13.653333 64.853333-17.066667 71.68l112.64 64.853333h3.413333c3.413333-3.413333 20.48-20.48 44.373334-37.546666 37.546667-27.306667 71.68-40.96 102.4-40.96 30.72 0 68.266667 13.653333 102.4 40.96 27.306667 10.24 44.373333 27.306667 44.373333 30.72z" p-id="3367" fill="#ffffff"></path><path d="M508.586667 682.666667c-95.573333 0-170.666667-75.093333-170.666667-170.666667s75.093333-170.666667 170.666667-170.666667 170.666667 75.093333 170.666666 170.666667-75.093333 170.666667-170.666666 170.666667z m0-283.306667c-61.44 0-112.64 51.2-112.64 112.64 0 61.44 51.2 112.64 112.64 112.64 61.44 0 112.64-51.2 112.64-112.64 0-61.44-47.786667-112.64-112.64-112.64z" p-id="3368" fill="#ffffff"></path></svg>