<?xml version="1.0" standalone="no"?><!DOCTYPE svg PUBLIC "-//W3C//DTD SVG 1.1//EN" "http://www.w3.org/Graphics/SVG/1.1/DTD/svg11.dtd"><svg t="1508816235038" class="icon" style="" viewBox="0 0 1024 1024" version="1.1" xmlns="http://www.w3.org/2000/svg" p-id="14538" xmlns:xlink="http://www.w3.org/1999/xlink" width="200" height="200"><defs><style type="text/css"></style></defs><path d="M883.84 458.944c-69.056 69.056-192.512 71.424-270.72 45.184L576.64 545.28l36.928 36.928c23.36-23.36 61.184-23.36 84.544 0l211.392 211.392c23.36 23.36 23.36 61.184 0 84.544l-42.24 42.24c-23.36 23.36-61.184 23.36-84.544 0l-211.392-211.328c-23.36-23.36-23.36-61.184 0-84.544L536.896 590.08l-297.856 336.064c-27.904 27.904-70.4 30.656-94.912 6.144L114.56 902.784c-24.512-24.512-21.76-67.008 6.144-94.912l336.064-297.856L64 117.184l42.304-42.304 395.328 395.328L542.72 433.792c-26.24-78.272-23.872-201.664 45.184-270.72 69.056-69.056 164.928-91.84 243.136-65.6l-103.808 103.808c-27.904 27.904-30.656 70.4-6.144 94.912l29.568 29.568c24.512 24.512 67.008 21.76 94.912-6.144l103.808-103.808C975.616 294.08 952.896 389.888 883.84 458.944z" p-id="14539" fill="#ffffff"></path></svg>