<?xml version="1.0" standalone="no"?><!DOCTYPE svg PUBLIC "-//W3C//DTD SVG 1.1//EN" "http://www.w3.org/Graphics/SVG/1.1/DTD/svg11.dtd"><svg class="icon" width="200px" height="187.72px" viewBox="0 0 1091 1024" version="1.1" xmlns="http://www.w3.org/2000/svg"><path d="M158.70144 355.968v606.912c0 29.248-59.52 29.248-59.52 0V393.856l-56.448 40.32c-24 17.152-58.56-32.64-34.688-49.728L471.91744 55.104C502.89344 32 522.09344 31.68 555.24544 56.448l459.84 328c23.808 16.96-6.592 66.752-30.656 49.728l-56.064-39.872v100.928c0 30.912-62.208 30.784-62.208 0V352.384L518.31744 105.024c-4.096-3.136-7.936-3.136-11.904-0.256L158.70144 355.968z" fill="#ffffff" /><path d="M927.21344 985.984a93.312 93.312 0 0 1-60.224 0V495.232c19.52-6.656 40.768-6.656 60.224 0v490.752z" fill="#ffffff" /><path d="M300.01344 460.096h82.88c8.256 0 14.976 6.72 14.976 14.976V558.08a14.912 14.912 0 0 1-14.976 14.912H300.01344a14.976 14.976 0 0 1-14.976-14.912V475.136a15.04 15.04 0 0 1 14.976-15.04m0 199.936h82.88c8.256 0 14.976 6.72 14.976 14.976v82.752a15.04 15.04 0 0 1-14.976 15.168H300.01344a15.104 15.104 0 0 1-14.976-15.168v-82.752a14.976 14.976 0 0 1 14.976-14.976m0 199.68h82.88c8.256 0 14.976 6.72 14.976 15.168v82.752a15.04 15.04 0 0 1-14.976 15.168H300.01344a15.104 15.104 0 0 1-14.976-15.168V874.88a14.976 14.976 0 0 1 14.976-15.168m199.552-199.68H582.50944c8.256 0 14.976 6.72 14.976 14.976v82.752a15.04 15.04 0 0 1-14.976 15.168H499.56544a15.04 15.04 0 0 1-14.976-15.168v-82.752a14.912 14.912 0 0 1 14.976-14.976m0 199.68H582.50944c8.256 0 14.976 6.72 14.976 15.168v82.752a15.04 15.04 0 0 1-14.976 15.168H499.56544a15.04 15.04 0 0 1-14.976-15.168V874.88a14.976 14.976 0 0 1 14.976-15.168m199.808 0h82.752c8.128 0 14.848 6.72 14.848 15.168v82.752a15.04 15.04 0 0 1-14.848 15.168h-82.752a15.168 15.168 0 0 1-15.232-15.168V874.88c0-8.448 6.848-15.168 15.232-15.168" fill="#ffffff" /></svg>